<?xml version="1.0" encoding="UTF-8"?>
<svg width="187px" height="66px" viewBox="0 0 187 66" version="1.1" xmlns="http://www.w3.org/2000/svg" xmlns:xlink="http://www.w3.org/1999/xlink">
    <!-- Generator: Sketch 58 (84663) - https://sketch.com -->
    <title>Group</title>
    <desc>Created with Sketch.</desc>
    <g id="Page-1" stroke="none" stroke-width="1" fill="none" fill-rule="evenodd">
        <g id="Artboard" transform="translate(-211.000000, -271.000000)" fill="#FF893B" fill-rule="nonzero">
            <g id="Group" transform="translate(211.000000, 271.000000)">
                <path d="M18.4980469,49.6368359 L18.4980469,41.6124219 L26.0712891,41.6124219 L26.0712891,64.88 L18.4980469,64.88 L18.4980469,56.5010938 L12.4072266,56.5010938 L12.4072266,64.88 L4.83398438,64.88 L4.83398438,48.5411328 L0,48.5411328 L0,41.6124219 L12.4072266,41.6124219 L12.4072266,49.6368359 L18.4980469,49.6368359 Z M34.4501953,41.6124219 L34.4501953,55.3731641 C34.3857419,56.9415313 34.6865201,58.0318524 35.3525391,58.6441602 C36.018558,59.2564679 37.0605398,59.5841013 38.4785156,59.6270703 C39.6171932,59.6055858 40.5678673,59.2725813 41.3305664,58.6280469 C42.0932655,57.9835124 42.4531252,56.8985623 42.4101562,55.3731641 L42.4101562,41.6124219 L49.9833984,41.6124219 L49.9833984,55.2603711 C49.9511717,57.1939745 49.6315948,58.7381485 49.0246582,59.8929395 C48.4177216,61.0477304 47.6496628,62.0118321 46.720459,62.7852734 C45.7912551,63.5587148 44.6257394,64.1602713 43.223877,64.5899609 C41.8220145,65.0196506 40.2617273,65.2559763 38.5429688,65.2989453 C37.1142507,65.2667186 35.6613843,65.0706756 34.1843262,64.7108105 C32.707268,64.3509455 31.4182184,63.7843007 30.3171387,63.0108594 C29.2160589,62.237418 28.3674346,61.2437756 27.7712402,60.0299023 C27.1750458,58.8160291 26.8769531,57.2315723 26.8769531,55.2764844 L26.8769531,41.6124219 L34.4501953,41.6124219 Z M66.2578125,41.6124219 C68.1269625,41.7842977 69.6630799,42.2784334 70.8662109,43.0948438 C72.069342,43.9112541 72.9501925,45.0069462 73.5087891,46.3819531 C73.9384787,48.4444634 73.9599629,50.0342913 73.5732422,51.1514844 C73.1865215,52.2686775 72.5097705,53.2032384 71.5429688,53.9551953 C70.576167,54.7071522 69.1904387,55.2979666 67.3857422,55.7276563 L69.1259766,57.9512891 L76.0869141,57.9512891 L76.0869141,64.88 L66.9023438,64.88 L59.5224609,57.1939648 L59.5224609,64.88 L51.1113281,64.88 L51.1113281,41.6124219 L66.2578125,41.6124219 Z M65.371582,47.4132031 L59.5224609,47.4132031 L59.5224609,51.6993359 L65.3876953,51.6993359 C65.6992203,51.6993359 66.0375958,51.5838586 66.402832,51.3529004 C66.7680682,51.1219422 66.9614257,50.5391844 66.9829102,49.6046094 C66.929199,48.7130034 66.7116718,48.1248745 66.3303223,47.8402051 C65.9489727,47.5555357 65.6293958,47.4132031 65.371582,47.4132031 Z M91.2333984,41.6124219 C93.1025484,41.7842977 94.6386659,42.2784334 95.8417969,43.0948438 C97.0449279,43.9112541 97.9257785,45.0069462 98.484375,46.3819531 C98.9140646,48.4444634 98.9355488,50.0342913 98.5488281,51.1514844 C98.1621074,52.2686775 97.4853564,53.2032384 96.5185547,53.9551953 C95.551753,54.7071522 94.1660246,55.2979666 92.3613281,55.7276563 L94.1015625,57.9512891 L101.0625,57.9512891 L101.0625,64.88 L91.8779297,64.88 L84.4980469,57.1939648 L84.4980469,64.88 L76.0869141,64.88 L76.0869141,41.6124219 L91.2333984,41.6124219 Z M90.347168,47.4132031 L84.4980469,47.4132031 L84.4980469,51.6993359 L90.3632812,51.6993359 C90.6748062,51.6993359 91.0131818,51.5838586 91.378418,51.3529004 C91.7436542,51.1219422 91.9370116,50.5391844 91.9584961,49.6046094 C91.9047849,48.7130034 91.6872578,48.1248745 91.3059082,47.8402051 C90.9245586,47.5555357 90.6049818,47.4132031 90.347168,47.4132031 Z M125.90918,41.6124219 L115.757812,56.3399609 L115.757812,64.88 L108.152344,64.88 L108.152344,56.3399609 L98.0009766,41.6124219 L107.185547,41.6124219 L111.922852,48.7989453 L116.724609,41.6124219 L125.90918,41.6124219 Z M146.856445,41.6124219 L146.856445,55.3731641 C146.791992,56.9415313 147.09277,58.0318524 147.758789,58.6441602 C148.424808,59.2564679 149.46679,59.5841013 150.884766,59.6270703 C152.023443,59.6055858 152.974117,59.2725813 153.736816,58.6280469 C154.499516,57.9835124 154.859375,56.8985623 154.816406,55.3731641 L154.816406,41.6124219 L162.389648,41.6124219 L162.389648,55.2603711 C162.357422,57.1939745 162.037845,58.7381485 161.430908,59.8929395 C160.823972,61.0477304 160.055913,62.0118321 159.126709,62.7852734 C158.197505,63.5587148 157.031989,64.1602713 155.630127,64.5899609 C154.228264,65.0196506 152.667977,65.2559763 150.949219,65.2989453 C149.520501,65.2667186 148.067634,65.0706756 146.590576,64.7108105 C145.113518,64.3509455 143.824468,63.7843007 142.723389,63.0108594 C141.622309,62.237418 140.773685,61.2437756 140.17749,60.0299023 C139.581296,58.8160291 139.283203,57.2315723 139.283203,55.2764844 L139.283203,41.6124219 L146.856445,41.6124219 Z M178.664062,41.6124219 C180.533212,41.7842977 182.080072,42.2676913 183.304688,43.0626172 C184.529303,43.857543 185.399411,44.9639773 185.915039,46.3819531 C186.387698,48.1007117 186.581055,49.3897613 186.495117,50.2491406 C186.409179,51.1085199 186.237306,51.9141759 185.979492,52.6661328 C185.721678,53.4180897 185.012701,54.2881982 183.852539,55.2764844 C182.692377,56.2647706 181.145517,56.9039243 179.211914,57.1939648 L171.928711,57.1939648 L171.928711,64.88 L163.517578,64.88 L163.517578,48.5411328 L158.683594,48.5411328 L158.683594,41.6124219 L178.664062,41.6124219 Z M177.777832,47.4132031 L171.928711,47.4132031 L171.928711,51.6993359 L177.793945,51.6993359 C178.10547,51.6993359 178.443846,51.5838586 178.809082,51.3529004 C179.174318,51.1219422 179.367676,50.5391844 179.38916,49.6046094 C179.335449,48.7130034 179.117922,48.1248745 178.736572,47.8402051 C178.355223,47.5555357 178.035646,47.4132031 177.777832,47.4132031 L177.777832,47.4132031 Z" id="HurryuP"></path>
                <path d="M97.6031348,11.88 L97.6031348,16.88 L102.603135,16.88 L102.603135,20.24 L97.6031348,20.24 L97.6031348,25.24 L94.3231348,25.24 L94.3231348,20.24 L89.3231348,20.24 L89.3231348,16.88 L94.3231348,16.88 L94.3231348,11.88 L97.6031348,11.88 Z M95.9631348,30.24 C98.0964788,30.24 100.056459,29.706672 101.843135,28.64 C103.603144,27.5999948 105.00313,26.1866756 106.043135,24.4 C107.08314,22.6133244 107.603135,20.653344 107.603135,18.52 C107.603135,16.386656 107.08314,14.4266756 106.043135,12.64 C105.00313,10.88 103.603144,9.4800052 101.843135,8.44 C100.056459,7.3999948 98.0964788,6.88 95.9631348,6.88 C93.8297908,6.88 91.8698104,7.3999948 90.0831348,8.44 C88.3231348,9.4800052 86.92314,10.88 85.8831348,12.64 C84.8431296,14.4266756 84.3231348,16.386656 84.3231348,18.52 C84.3231348,20.653344 84.8431296,22.6133244 85.8831348,24.4 C86.92314,26.1866756 88.3231348,27.5999948 90.0831348,28.64 C91.8698104,29.706672 93.8297908,30.24 95.9631348,30.24 Z M95.9631348,3.52 C98.6831484,3.52 101.203123,4.1999932 103.523135,5.56 C105.789813,6.89334 107.589795,8.693322 108.923135,10.96 C110.283142,13.2800116 110.963135,15.7999864 110.963135,18.52 C110.963135,21.2400136 110.283142,23.7599884 108.923135,26.08 C107.589795,28.346678 105.789813,30.14666 103.523135,31.48 C101.203123,32.8400068 98.6831484,33.52 95.9631348,33.52 C93.2431212,33.52 90.7231464,32.8400068 88.4031348,31.48 C86.1364568,30.14666 84.3364748,28.346678 83.0031348,26.08 C81.643128,23.7599884 80.9631348,21.2400136 80.9631348,18.52 C80.9631348,15.7999864 81.643128,13.2800116 83.0031348,10.96 C84.3364748,8.693322 86.1364568,6.89334 88.4031348,5.56 C90.7231464,4.1999932 93.2431212,3.52 95.9631348,3.52 Z M112.603135,6.4 L110.483135,9 L102.843135,2.52 L104.963135,0 L112.603135,6.4 Z M89.0831348,2.52 L81.4431348,8.92 L79.3231348,6.4 L86.9631348,0 L89.0831348,2.52 Z" id=""></path>
            </g>
        </g>
    </g>
</svg>